<svg xmlns="http://www.w3.org/2000/svg" viewBox="0 0 160 32" width="160" height="32" role="img" aria-label="NVIDIA">
  <g>
    <!-- NV-eye mark (source: NVIDIA corporate mark, green #76B900) -->
    <svg x="0" y="1" width="30" height="30" viewBox="0 0 32 32">
      <path fill="#76B900" d="M13.4 11.2v-1.7c.4-.1.9-.1 1.3-.1 4.6-.1 7.7 4 7.7 4s-3.3 4.6-6.8 4.6c-.8 0-1.5-.1-2.2-.4v-5.3c1.8.2 2.2.9 3.2 2.6l2.2-1.8s-1.6-2.1-4.3-2.1c-.3 0-.6 0-1.1.2zm0-5.6v2.5l1.3-.1c6.4-.2 10.6 5.2 10.6 5.2s-4.8 5.8-9.8 5.8c-.4 0-.9 0-1.3-.1v1.5c.4 0 .7.1 1.1.1 4.6 0 7.9-2.4 11.1-5.1.5.4 2.7 1.5 3.1 1.9-3 2.6-10.1 4.7-14.1 4.7-.4 0-.8 0-1.2-.1v2.2h17.3V5.6H13.4zm0 12.1v1.3c-4.3-.8-5.5-5.3-5.5-5.3s2.1-2.3 5.5-2.7v1.5H13.4c-1.8-.2-3.2 1.5-3.2 1.5s.8 2.8 3.2 3.7zM5.5 12.4s2.6-3.9 7.9-4.3V6.6C7.5 7.1 2.4 12 2.4 12s2.9 8.4 11 9.2v-1.5C7.5 18.9 5.5 12.4 5.5 12.4z"/>
    </svg>
    <!-- NVIDIA wordmark -->
    <text x="40" y="24"
          font-family="Helvetica, Arial, sans-serif"
          font-weight="700"
          font-style="italic"
          font-size="20"
          letter-spacing="-0.5"
          fill="#76B900">NVIDIA</text>
  </g>
</svg>
