<svg xmlns="http://www.w3.org/2000/svg" viewBox="0 0 120 32" width="120" height="32" aria-label="NVIDIA">
  <g fill="#76B900">
    <path d="M13.4 11.2v-1.7c.4-.1.9-.1 1.3-.1 4.6-.1 7.7 4 7.7 4s-3.3 4.6-6.8 4.6c-.8 0-1.5-.1-2.2-.4v-5.3c1.8.2 2.2.9 3.2 2.6l2.2-1.8s-1.6-2.1-4.3-2.1c-.3 0-.6 0-1.1.2zm0-5.6v2.5l1.3-.1c6.4-.2 10.6 5.2 10.6 5.2s-4.8 5.8-9.8 5.8c-.4 0-.9 0-1.3-.1v1.5c.4 0 .7.1 1.1.1 4.6 0 7.9-2.4 11.1-5.1.5.4 2.7 1.5 3.1 1.9-3 2.6-10.1 4.7-14.1 4.7-.4 0-.8 0-1.2-.1v2.2h17.3V5.6H13.4zm0 12.1v1.3c-4.3-.8-5.5-5.3-5.5-5.3s2.1-2.3 5.5-2.7v1.5H13.4c-1.8-.2-3.2 1.5-3.2 1.5s.8 2.8 3.2 3.7zM5.5 12.4s2.6-3.9 7.9-4.3V6.6C7.5 7.1 2.4 12 2.4 12s2.9 8.4 11 9.2v-1.5C7.5 18.9 5.5 12.4 5.5 12.4z"/>
    <path d="M38.5 11.3h3.3v14.2h-3.3zM48.8 14.6v10.9h-3.2V11.3h3.9l5.6 10.9V11.3h3.2v14.2h-3.7zM62.5 11.3h3.3v14.2h-3.3zM70.8 11.3h5.3c5.1 0 7 2.9 7 7v.2c0 4.1-1.9 7-7 7h-5.3zm3.3 2.7v8.9h1.7c2.9 0 3.8-1.3 3.8-4.3v-.2c0-3.1-.9-4.4-3.8-4.4zM95.5 25.5l-.9-2.5h-5.2l-.9 2.5h-3.4l5-14.2h4l5 14.2zm-5.3-5h3.6l-1.8-5z"/>
  </g>
</svg>
